<?xml version="1.0" encoding="UTF-8" standalone="no"?>
<!-- Created with Inkscape (http://www.inkscape.org/) -->

<svg
   xmlns:dc="http://purl.org/dc/elements/1.1/"
   xmlns:cc="http://creativecommons.org/ns#"
   xmlns:rdf="http://www.w3.org/1999/02/22-rdf-syntax-ns#"
   xmlns:svg="http://www.w3.org/2000/svg"
   xmlns="http://www.w3.org/2000/svg"
   xmlns:sodipodi="http://sodipodi.sourceforge.net/DTD/sodipodi-0.dtd"
   xmlns:inkscape="http://www.inkscape.org/namespaces/inkscape"
   width="7.5605164mm"
   height="7.5513544mm"
   viewBox="0 0 7.5605164 7.5513544"
   version="1.1"
   id="svg1969"
   inkscape:version="0.92.3 (2405546, 2018-03-11)"
   sodipodi:docname="organico.svg">
  <defs
     id="defs1963">
    <clipPath
       clipPathUnits="userSpaceOnUse"
       id="clipPath3970">
      <path
         d="M 0,35 H 35 V 0 H 0 Z"
         id="path3968"
         inkscape:connector-curvature="0" />
    </clipPath>
  </defs>
  <sodipodi:namedview
     id="base"
     pagecolor="#ffffff"
     bordercolor="#666666"
     borderopacity="1.0"
     inkscape:pageopacity="0.0"
     inkscape:pageshadow="2"
     inkscape:zoom="0.35"
     inkscape:cx="-851.42669"
     inkscape:cy="197.12741"
     inkscape:document-units="mm"
     inkscape:current-layer="layer1"
     showgrid="false"
     inkscape:window-width="1280"
     inkscape:window-height="996"
     inkscape:window-x="297"
     inkscape:window-y="0"
     inkscape:window-maximized="1" />
  <metadata
     id="metadata1966">
    <rdf:RDF>
      <cc:Work
         rdf:about="">
        <dc:format>image/svg+xml</dc:format>
        <dc:type
           rdf:resource="http://purl.org/dc/dcmitype/StillImage" />
        <dc:title />
      </cc:Work>
    </rdf:RDF>
  </metadata>
  <g
     inkscape:label="Layer 1"
     inkscape:groupmode="layer"
     id="layer1"
     transform="translate(-146.65426,-193.43861)">
    <g
       id="g3964"
       transform="matrix(0.35277777,0,0,-0.35277777,144.26064,201.23182)">
      <g
         id="g3966"
         clip-path="url(#clipPath3970)">
        <g
           id="g3972"
           transform="translate(13.9154,18.315)">
          <path
             d="m 0,0 h 1.682 v 0.229 c 0,1.322 -1.073,2.394 -2.394,2.394 H -2.396 V 2.396 C -2.396,1.072 -1.323,0 0,0 Z"
             style="fill:none;stroke:#ffffff;stroke-width:1.29999995;stroke-linecap:butt;stroke-linejoin:miter;stroke-miterlimit:4;stroke-dasharray:none;stroke-opacity:1"
             id="path3974"
             inkscape:connector-curvature="0" />
        </g>
        <g
           id="g3976"
           transform="translate(18.123,21.441)">
          <path
             d="M 0,0 V 0 C -0.688,0 -1.248,-0.559 -1.248,-1.247 V -5.82"
             style="fill:none;stroke:#ffffff;stroke-width:1.29999995;stroke-linecap:butt;stroke-linejoin:miter;stroke-miterlimit:4;stroke-dasharray:none;stroke-opacity:1"
             id="path3978"
             inkscape:connector-curvature="0" />
        </g>
        <g
           id="g3980"
           transform="translate(24.2499,16.8716)">
          <path
             d="m 0,0 c 2.151,-0.715 3.633,-3.11 3.258,-7.984 -0.415,-4.031 -2.48,-7.529 -7.233,-7.538 -0.963,-0.003 -1.894,0.137 -2.756,0.401 -0.858,-0.268 -1.789,-0.412 -2.757,-0.415 -4.69,-0.009 -6.889,4.033 -7.262,7.508 -0.653,7.972 3.699,9.332 7.833,7.544 0.769,-0.319 1.044,-0.565 1.382,-0.565"
             style="fill:none;stroke:#ffffff;stroke-width:1.29999995;stroke-linecap:butt;stroke-linejoin:miter;stroke-miterlimit:4;stroke-dasharray:none;stroke-opacity:1"
             id="path3982"
             inkscape:connector-curvature="0" />
        </g>
        <g
           id="g3984"
           transform="translate(16.9081,17.8375)">
          <path
             d="m 0,0 v -2.021 h 4.421 c 1.246,0 2.256,1.01 2.256,2.256 V 2.257 H 2.257 C 1.011,2.257 0,1.247 0,0 Z"
             style="fill:none;stroke:#ffffff;stroke-width:1.29999995;stroke-linecap:butt;stroke-linejoin:miter;stroke-miterlimit:4;stroke-dasharray:none;stroke-opacity:1"
             id="path3986"
             inkscape:connector-curvature="0" />
        </g>
      </g>
    </g>
  </g>
</svg>
