<?xml version="1.0" encoding="UTF-8" standalone="no"?>
<!-- Created with Inkscape (http://www.inkscape.org/) -->

<svg
   xmlns:dc="http://purl.org/dc/elements/1.1/"
   xmlns:cc="http://creativecommons.org/ns#"
   xmlns:rdf="http://www.w3.org/1999/02/22-rdf-syntax-ns#"
   xmlns:svg="http://www.w3.org/2000/svg"
   xmlns="http://www.w3.org/2000/svg"
   xmlns:sodipodi="http://sodipodi.sourceforge.net/DTD/sodipodi-0.dtd"
   xmlns:inkscape="http://www.inkscape.org/namespaces/inkscape"
   width="4.1101317mm"
   height="10.928637mm"
   viewBox="0 0 4.1101317 10.928637"
   version="1.1"
   id="svg351"
   inkscape:version="0.92.3 (2405546, 2018-03-11)"
   sodipodi:docname="plastico.svg">
  <defs
     id="defs345">
    <clipPath
       clipPathUnits="userSpaceOnUse"
       id="clipPath3822">
      <path
         d="M 0,35 H 35 V 0 H 0 Z"
         id="path3820"
         inkscape:connector-curvature="0" />
    </clipPath>
  </defs>
  <sodipodi:namedview
     id="base"
     pagecolor="#ffffff"
     bordercolor="#666666"
     borderopacity="1.0"
     inkscape:pageopacity="0.0"
     inkscape:pageshadow="2"
     inkscape:zoom="0.35"
     inkscape:cx="-212.23282"
     inkscape:cy="-16.490298"
     inkscape:document-units="mm"
     inkscape:current-layer="layer1"
     showgrid="false"
     inkscape:window-width="1853"
     inkscape:window-height="1025"
     inkscape:window-x="67"
     inkscape:window-y="1051"
     inkscape:window-maximized="1" />
  <metadata
     id="metadata348">
    <rdf:RDF>
      <cc:Work
         rdf:about="">
        <dc:format>image/svg+xml</dc:format>
        <dc:type
           rdf:resource="http://purl.org/dc/dcmitype/StillImage" />
        <dc:title></dc:title>
      </cc:Work>
    </rdf:RDF>
  </metadata>
  <g
     inkscape:label="Layer 1"
     inkscape:groupmode="layer"
     id="layer1"
     transform="translate(-69.76041,-133.54164)">
    <g
       id="g3816"
       transform="matrix(0.35277777,0,0,-0.35277777,65.639119,144.57882)">
      <g
         id="g3818"
         clip-path="url(#clipPath3822)">
        <g
           id="g3824"
           transform="translate(22.6825,20.1617)">
          <path
             d="m 0,0 c -0.013,1.002 0.057,3.638 -0.909,4.974 -1.959,2.775 -6.558,2.775 -8.517,0 C -10.392,3.638 -10.323,1.002 -10.335,0 v -15.627 c 0,-0.024 0.002,-0.05 0.003,-0.074 -10e-4,-0.04 -0.003,-0.083 -0.003,-0.124 -0.03,-1.808 0.917,-3.33 2.087,-3.379 0.61,-0.003 1.14,0.495 1.51,1.308 0.407,-0.791 0.961,-1.308 1.571,-1.308 0.608,-10e-4 1.163,0.516 1.569,1.308 0.37,-0.814 0.9,-1.311 1.511,-1.308 1.169,0.049 2.116,1.57 2.087,3.379 0,0.041 -0.003,0.082 -0.004,0.124 0.001,0.024 0.004,0.05 0.004,0.074 z"
             style="fill:none;stroke:#ffffff;stroke-width:1.29999995;stroke-linecap:butt;stroke-linejoin:miter;stroke-miterlimit:4;stroke-dasharray:none;stroke-opacity:1"
             id="path3826"
             inkscape:connector-curvature="0" />
        </g>
        <g
           id="g3828"
           transform="translate(15.6952,28.2515)">
          <path
             d="M 0,0 V 2.385 H 3.578 V 0"
             style="fill:none;stroke:#ffffff;stroke-width:1.29999995;stroke-linecap:butt;stroke-linejoin:miter;stroke-miterlimit:4;stroke-dasharray:none;stroke-opacity:1"
             id="path3830"
             inkscape:connector-curvature="0" />
        </g>
        <g
           id="g3832"
           transform="translate(12.3324,20.2535)">
          <path
             d="M 0,0 V -12.771 H 10.334 V 0 c -0.002,0.212 0,0.505 -0.009,0.844 H 0.01 C 0.001,0.505 0.003,0.212 0,0 Z"
             style="fill:none;stroke:#ffffff;stroke-width:1.29999995;stroke-linecap:butt;stroke-linejoin:miter;stroke-miterlimit:4;stroke-dasharray:none;stroke-opacity:1"
             id="path3834"
             inkscape:connector-curvature="0" />
        </g>
        <g
           id="g3836"
           transform="translate(19.8349,15.2838)">
          <path
             d="m 0,0 c 0,-1.29 -1.045,-2.335 -2.335,-2.335 -1.29,0 -2.335,1.045 -2.335,2.335 0,1.289 1.045,2.335 2.335,2.335 C -1.045,2.335 0,1.289 0,0 Z"
             style="fill:none;stroke:#ffffff;stroke-width:1.29999995;stroke-linecap:butt;stroke-linejoin:miter;stroke-miterlimit:4;stroke-dasharray:none;stroke-opacity:1"
             id="path3838"
             inkscape:connector-curvature="0" />
        </g>
        <g
           id="g3840"
           transform="translate(14.6181,10.564)">
          <path
             d="M 0,0 H 5.764"
             style="fill:none;stroke:#ffffff;stroke-width:1.29999995;stroke-linecap:butt;stroke-linejoin:miter;stroke-miterlimit:4;stroke-dasharray:none;stroke-opacity:1"
             id="path3842"
             inkscape:connector-curvature="0" />
        </g>
      </g>
    </g>
  </g>
</svg>
