<?xml version="1.0" encoding="UTF-8" standalone="no"?>
<!-- Created with Inkscape (http://www.inkscape.org/) -->

<svg
   xmlns:dc="http://purl.org/dc/elements/1.1/"
   xmlns:cc="http://creativecommons.org/ns#"
   xmlns:rdf="http://www.w3.org/1999/02/22-rdf-syntax-ns#"
   xmlns:svg="http://www.w3.org/2000/svg"
   xmlns="http://www.w3.org/2000/svg"
   xmlns:sodipodi="http://sodipodi.sourceforge.net/DTD/sodipodi-0.dtd"
   xmlns:inkscape="http://www.inkscape.org/namespaces/inkscape"
   width="7.382865mm"
   height="7.189611mm"
   viewBox="0 0 7.382865 7.189611"
   version="1.1"
   id="svg882"
   inkscape:version="0.92.3 (2405546, 2018-03-11)"
   sodipodi:docname="quimicos.svg">
  <defs
     id="defs876">
    <clipPath
       clipPathUnits="userSpaceOnUse"
       id="clipPath4066">
      <path
         d="M 0,35 H 35 V 0 H 0 Z"
         id="path4064"
         inkscape:connector-curvature="0" />
    </clipPath>
  </defs>
  <sodipodi:namedview
     id="base"
     pagecolor="#ffffff"
     bordercolor="#666666"
     borderopacity="1.0"
     inkscape:pageopacity="0.0"
     inkscape:pageshadow="2"
     inkscape:zoom="0.35"
     inkscape:cx="-657.4767"
     inkscape:cy="-803.55619"
     inkscape:document-units="mm"
     inkscape:current-layer="layer1"
     showgrid="false"
     inkscape:window-width="1280"
     inkscape:window-height="996"
     inkscape:window-x="297"
     inkscape:window-y="0"
     inkscape:window-maximized="1" />
  <metadata
     id="metadata879">
    <rdf:RDF>
      <cc:Work
         rdf:about="">
        <dc:format>image/svg+xml</dc:format>
        <dc:type
           rdf:resource="http://purl.org/dc/dcmitype/StillImage" />
        <dc:title></dc:title>
      </cc:Work>
    </rdf:RDF>
  </metadata>
  <g
     inkscape:label="Layer 1"
     inkscape:groupmode="layer"
     id="layer1"
     transform="translate(-187.56452,70.963853)">
    <g
       id="g4060"
       transform="matrix(0.35277777,0,0,-0.35277777,185.08232,-63.503944)">
      <g
         id="g4062"
         clip-path="url(#clipPath4066)">
        <g
           id="g4068"
           transform="translate(26.4325,6.2222)">
          <path
             d="m 0,0 -5.204,7.654 v 4.038 c 0.441,0.267 0.708,0.704 0.708,1.22 0,0.877 -0.747,1.512 -1.774,1.512 h -5.325 c -1.027,0 -1.775,-0.635 -1.775,-1.512 0,-0.516 0.267,-0.953 0.71,-1.22 V 7.654 L -17.865,0 c -1.334,-1.819 -1.089,-2.598 -0.825,-3.239 0.266,-0.642 1.02,-1.717 3.102,-1.717 h 13.311 c 2.082,0 2.837,1.075 3.102,1.717 C 1.09,-2.598 1.333,-1.819 0,0 Z"
             style="fill:none;stroke:#ffffff;stroke-width:1;stroke-linecap:butt;stroke-linejoin:miter;stroke-miterlimit:10;stroke-dasharray:none;stroke-opacity:1"
             id="path4070"
             inkscape:connector-curvature="0" />
        </g>
        <g
           id="g4072"
           transform="translate(22.9335,8.0093)">
          <path
             d="m 0,0 h -10.868 l -2.549,-3.763 c -0.263,-0.387 -0.04,-0.972 0.371,-0.972 H 2.18 c 0.411,0 0.633,0.587 0.37,0.972 z"
             style="fill:#ffffff;fill-opacity:1;fill-rule:nonzero;stroke:none"
             id="path4074"
             inkscape:connector-curvature="0" />
        </g>
      </g>
    </g>
  </g>
</svg>
