<?xml version="1.0" encoding="UTF-8" standalone="no"?>
<!-- Created with Inkscape (http://www.inkscape.org/) -->

<svg
   xmlns:dc="http://purl.org/dc/elements/1.1/"
   xmlns:cc="http://creativecommons.org/ns#"
   xmlns:rdf="http://www.w3.org/1999/02/22-rdf-syntax-ns#"
   xmlns:svg="http://www.w3.org/2000/svg"
   xmlns="http://www.w3.org/2000/svg"
   xmlns:sodipodi="http://sodipodi.sourceforge.net/DTD/sodipodi-0.dtd"
   xmlns:inkscape="http://www.inkscape.org/namespaces/inkscape"
   width="10.102003mm"
   height="10.855995mm"
   viewBox="0 0 10.102003 10.855995"
   version="1.1"
   id="svg3070"
   inkscape:version="0.92.3 (2405546, 2018-03-11)"
   sodipodi:docname="sucata.svg">
  <defs
     id="defs3064" />
  <sodipodi:namedview
     id="base"
     pagecolor="#ffffff"
     bordercolor="#666666"
     borderopacity="1.0"
     inkscape:pageopacity="0.0"
     inkscape:pageshadow="2"
     inkscape:zoom="0.35"
     inkscape:cx="-835.19533"
     inkscape:cy="529.08669"
     inkscape:document-units="mm"
     inkscape:current-layer="layer1"
     showgrid="false"
     inkscape:window-width="1853"
     inkscape:window-height="1025"
     inkscape:window-x="67"
     inkscape:window-y="1051"
     inkscape:window-maximized="1" />
  <metadata
     id="metadata3067">
    <rdf:RDF>
      <cc:Work
         rdf:about="">
        <dc:format>image/svg+xml</dc:format>
        <dc:type
           rdf:resource="http://purl.org/dc/dcmitype/StillImage" />
        <dc:title></dc:title>
      </cc:Work>
    </rdf:RDF>
  </metadata>
  <g
     inkscape:label="Layer 1"
     inkscape:groupmode="layer"
     id="layer1"
     transform="translate(-326.8121,-277.96486)">
    <g
       id="g4104"
       transform="matrix(0.35277777,0,0,-0.35277777,103.83345,148.43046)">
      <g
         id="g1684">
        <path
           inkscape:connector-curvature="0"
           id="path4102"
           style="fill:none;stroke:#ffffff;stroke-width:1.29999995;stroke-linecap:butt;stroke-linejoin:miter;stroke-miterlimit:10;stroke-dasharray:none;stroke-opacity:1"
           d="m 0,0 h -15.565 l -3.209,6.23 -1.325,4.249 v 4.323 h 19.698 l 6.05,-6.259 z"
           transform="translate(12.804,-8.543)" />
        <path
           inkscape:connector-curvature="0"
           id="path4106"
           style="fill:none;stroke:#ffffff;stroke-width:1.29999995;stroke-linecap:butt;stroke-linejoin:miter;stroke-miterlimit:10;stroke-dasharray:none;stroke-opacity:1"
           d="M 0,0 H 18.453" />
      </g>
    </g>
    <g
       transform="matrix(0.35277777,0,0,-0.35277777,336.79447,282.09916)"
       id="g308">
      <g
         transform="translate(-3.393691,-8.37162)"
         id="g3936">
        <path
           inkscape:connector-curvature="0"
           id="path3938"
           style="fill:#ffffff;fill-opacity:1;fill-rule:nonzero;stroke:none"
           d="m 0,0 c -0.021,-0.035 -0.043,-0.078 -0.066,-0.127 l -0.602,-1.042 c -0.475,-0.38 -1.059,-0.59 -1.677,-0.576 h -0.003 c -0.047,0.001 -0.105,-10e-4 -0.166,-0.006 l -0.591,0.003 -2.806,4.859 3.956,2.285 1.972,-3.415 C 0.371,1.367 0.365,0.607 0,0 m -3.645,-6.326 c -0.348,-0.606 -0.995,-0.978 -1.7,-0.978 -0.048,0.001 -0.1,0 -0.163,-0.004 h -5.187 v -0.446 l -1.983,2.648 1.983,2.648 V -2.68 l 8.196,-0.046 0.042,0.002 c 0.036,0.002 0.069,0.005 0.098,0.005 0.282,-0.004 0.563,0.025 0.837,0.085 z m -15.403,4.559 2.77,4.737 1.887,-1.089 -2.197,5.129 1.953,-1.127 3.007,5.209 2.717,-4.766 -1.887,-1.09 5.482,-0.656 -1.926,-1.112 3.008,-5.209 -5.487,0.03 v 2.18 l -3.312,-4.425 v 2.189 z m 5.041,-5.543 h -3.943 c -0.709,0 -1.364,0.386 -1.706,1.002 -0.02,0.037 -0.046,0.079 -0.076,0.123 l -0.603,1.044 c -0.091,0.602 0.026,1.218 0.341,1.744 0.025,0.04 0.051,0.09 0.078,0.147 l 0.298,0.509 h 5.611 z m -9.287,9.312 c 0.019,0.033 0.04,0.073 0.062,0.118 l 2.593,4.491 -0.386,0.224 3.284,0.393 1.302,-3.041 -0.191,0.111 -4.138,-7.075 -0.021,-0.04 c -0.015,-0.034 -0.03,-0.063 -0.042,-0.082 -0.146,-0.244 -0.262,-0.502 -0.346,-0.769 l -2.137,3.683 c -0.354,0.614 -0.348,1.375 0.02,1.987 m 6.316,10.91 c 0.355,0.615 1.018,0.991 1.728,0.977 0.039,0 0.086,0.001 0.139,0.005 h 1.203 c 0.567,-0.221 1.042,-0.631 1.338,-1.164 0.023,-0.042 0.054,-0.09 0.09,-0.142 l 0.293,-0.516 -2.805,-4.858 -3.957,2.284 z m 9.026,0.984 c 0.71,0 1.365,-0.386 1.714,-1.014 0.018,-0.032 0.042,-0.071 0.07,-0.112 l 2.591,-4.49 0.387,0.224 -1.302,-3.041 -3.284,0.392 0.191,0.112 -4.059,7.12 -0.021,0.033 c -0.02,0.03 -0.04,0.059 -0.053,0.083 -0.137,0.248 -0.303,0.477 -0.492,0.683 z M 0.86,2.469 -1.599,6.727 -3.315,5.734 l 2.172,5.078 -2.078,-1.201 -2.113,3.662 -0.022,0.035 c -0.016,0.023 -0.029,0.044 -0.035,0.054 -0.516,0.93 -1.498,1.508 -2.562,1.508 l -2.339,-0.005 v 0.003 h -4.838 l -0.038,-10e-4 c -0.025,-0.002 -0.048,-0.003 -0.066,-0.004 -1.059,0.024 -2.056,-0.543 -2.587,-1.464 L -20.28,9.142 -18.506,8.117 -24.047,7.454 -21.969,6.255 -24.084,2.593 -24.1,2.563 C -24.112,2.537 -24.124,2.514 -24.132,2.5 -24.679,1.587 -24.689,0.449 -24.157,-0.473 l 1.173,-2.022 -0.002,-0.002 2.419,-4.19 0.02,-0.032 c 0.013,-0.019 0.026,-0.037 0.037,-0.057 0.516,-0.93 1.497,-1.507 2.56,-1.507 h 4.917 v 2.026 l 3.312,-4.425 v 2.4 h 4.229 l 0.034,10e-4 c 0.028,0.002 0.057,0.004 0.07,0.004 1.062,-0.018 2.056,0.543 2.588,1.465 l 1.165,2.027 0.003,-0.002 2.419,4.19 0.019,0.036 c 0.01,0.022 0.019,0.041 0.029,0.058 0.548,0.912 0.558,2.051 0.025,2.972" />
      </g>
      <g
         transform="translate(-12.271591,10.00828)"
         id="g3940">
        <path
           inkscape:connector-curvature="0"
           id="path3942"
           style="fill:#ffffff;fill-opacity:1;fill-rule:nonzero;stroke:none"
           d="M 0,0 C 0,0.821 0.666,1.487 1.487,1.487 2.309,1.487 2.974,0.821 2.974,0 2.974,-0.821 2.309,-1.487 1.487,-1.487 0.666,-1.487 0,-0.821 0,0" />
      </g>
      <g
         transform="translate(-20.989391,10.00828)"
         id="g3944">
        <path
           inkscape:connector-curvature="0"
           id="path3946"
           style="fill:#ffffff;fill-opacity:1;fill-rule:nonzero;stroke:none"
           d="m 0,0 c 0,0.945 0.766,1.711 1.711,1.711 0.945,0 1.71,-0.766 1.71,-1.711 0,-0.945 -0.765,-1.71 -1.71,-1.71 C 0.766,-1.71 0,-0.945 0,0" />
      </g>
      <g
         transform="translate(-4.997191,5.64838)"
         id="g3948">
        <path
           inkscape:connector-curvature="0"
           id="path3950"
           style="fill:#ffffff;fill-opacity:1;fill-rule:nonzero;stroke:none"
           d="m 0,0 c 0,0.652 0.529,1.181 1.182,1.181 0.652,0 1.18,-0.529 1.18,-1.181 0,-0.652 -0.528,-1.181 -1.18,-1.181 C 0.529,-1.181 0,-0.652 0,0" />
      </g>
      <g
         transform="translate(-28.296491,5.64838)"
         id="g3952">
        <path
           inkscape:connector-curvature="0"
           id="path3954"
           style="fill:#ffffff;fill-opacity:1;fill-rule:nonzero;stroke:none"
           d="M 0,0 C 0,1.12 0.908,2.028 2.028,2.028 3.148,2.028 4.056,1.12 4.056,0 4.056,-1.121 3.148,-2.029 2.028,-2.029 0.908,-2.029 0,-1.121 0,0" />
      </g>
      <g
         transform="translate(-1.174891,-1.23682)"
         id="g3956">
        <path
           inkscape:connector-curvature="0"
           id="path3958"
           style="fill:#ffffff;fill-opacity:1;fill-rule:nonzero;stroke:none"
           d="M 0,0 C 0,0.418 0.339,0.757 0.757,0.757 1.175,0.757 1.514,0.418 1.514,0 1.514,-0.418 1.175,-0.757 0.757,-0.757 0.339,-0.757 0,-0.418 0,0" />
      </g>
      <g
         transform="translate(-0.795991,-8.69972)"
         id="g3960">
        <path
           inkscape:connector-curvature="0"
           id="path3962"
           style="fill:#ffffff;fill-opacity:1;fill-rule:nonzero;stroke:none"
           d="M 0,0 C 0,0.209 0.169,0.378 0.378,0.378 0.587,0.378 0.756,0.209 0.756,0 0.756,-0.208 0.587,-0.378 0.378,-0.378 0.169,-0.378 0,-0.208 0,0" />
      </g>
    </g>
  </g>
</svg>
