<?xml version="1.0" encoding="UTF-8" standalone="no"?>
<!-- Created with Inkscape (http://www.inkscape.org/) -->

<svg
   xmlns:dc="http://purl.org/dc/elements/1.1/"
   xmlns:cc="http://creativecommons.org/ns#"
   xmlns:rdf="http://www.w3.org/1999/02/22-rdf-syntax-ns#"
   xmlns:svg="http://www.w3.org/2000/svg"
   xmlns="http://www.w3.org/2000/svg"
   xmlns:sodipodi="http://sodipodi.sourceforge.net/DTD/sodipodi-0.dtd"
   xmlns:inkscape="http://www.inkscape.org/namespaces/inkscape"
   width="9.5866423mm"
   height="10.185753mm"
   viewBox="0 0 9.5866423 10.185753"
   version="1.1"
   id="svg3078"
   inkscape:version="0.92.3 (2405546, 2018-03-11)"
   sodipodi:docname="tecido.svg">
  <defs
     id="defs3072">
    <clipPath
       clipPathUnits="userSpaceOnUse"
       id="clipPath4082">
      <path
         d="M 0,35 H 35 V 0 H 0 Z"
         id="path4080"
         inkscape:connector-curvature="0" />
    </clipPath>
  </defs>
  <sodipodi:namedview
     id="base"
     pagecolor="#ffffff"
     bordercolor="#666666"
     borderopacity="1.0"
     inkscape:pageopacity="0.0"
     inkscape:pageshadow="2"
     inkscape:zoom="0.35"
     inkscape:cx="-1136.1692"
     inkscape:cy="-975.03704"
     inkscape:document-units="mm"
     inkscape:current-layer="layer1"
     showgrid="false"
     inkscape:window-width="1853"
     inkscape:window-height="1025"
     inkscape:window-x="67"
     inkscape:window-y="1051"
     inkscape:window-maximized="1" />
  <metadata
     id="metadata3075">
    <rdf:RDF>
      <cc:Work
         rdf:about="">
        <dc:format>image/svg+xml</dc:format>
        <dc:type
           rdf:resource="http://purl.org/dc/dcmitype/StillImage" />
        <dc:title></dc:title>
      </cc:Work>
    </rdf:RDF>
  </metadata>
  <g
     inkscape:label="Layer 1"
     inkscape:groupmode="layer"
     id="layer1"
     transform="translate(-314.21858,119.33097)">
    <g
       id="g4076"
       transform="matrix(0.35277777,0,0,-0.35277777,312.8383,-109.0173)">
      <g
         id="g4078"
         clip-path="url(#clipPath4082)">
        <g
           id="g4084"
           transform="translate(16.3407,26.7554)">
          <path
             d="m 0,0 h 2.352 c 0.252,0 0.456,0.204 0.456,0.456 0,0.252 -0.204,0.456 -0.456,0.456 H 0 C -0.252,0.912 -0.456,0.708 -0.456,0.456 -0.456,0.204 -0.252,0 0,0"
             style="fill:#ffffff;fill-opacity:1;fill-rule:nonzero;stroke:none"
             id="path4086"
             inkscape:connector-curvature="0" />
        </g>
        <g
           id="g4088"
           transform="translate(26.3183,17.0386)">
          <path
             d="M 0,0 V 0.979 L 3.542,2.466 3.776,1.5 Z M 0,4.688 2.071,8.114 C 2.181,7.919 2.245,7.751 2.277,7.658 V 7.657 C 2.28,7.648 2.283,7.64 2.285,7.632 2.285,7.631 2.286,7.629 2.286,7.628 2.288,7.622 2.29,7.617 2.292,7.612 2.292,7.61 2.293,7.608 2.293,7.606 2.295,7.603 2.296,7.599 2.297,7.596 c 0,-0.002 0,-0.004 10e-4,-0.005 C 2.299,7.588 2.299,7.586 2.3,7.585 c 0,-0.002 0,-0.003 0.001,-0.003 0,-0.002 0,-0.003 10e-4,-0.004 L 3.324,3.363 0,1.969 Z m -8.786,2.457 c -1.801,0 -3.723,1.644 -3.934,4.14 h 7.869 C -5.062,8.789 -6.983,7.145 -8.786,7.145 m -8.85,-2.457 V 1.969 l -3.325,1.394 1.023,4.213 c 10e-4,0.005 0.063,0.24 0.23,0.538 z m 0,-4.688 -3.777,1.5 0.234,0.966 3.543,-1.487 z M 0,-0.981 4.481,0.799 C 4.692,0.883 4.81,1.109 4.756,1.33 L 3.188,7.793 C 3.172,7.857 2.79,9.367 1.29,10.004 c -1.086,0.462 -4.519,1.766 -5.379,2.091 -0.078,0.064 -0.179,0.102 -0.287,0.102 h -0.065 -8.754 c -0.015,0 -0.03,-10e-4 -0.044,-0.003 -0.006,0 -0.012,-0.001 -0.018,-0.002 -0.009,-10e-4 -0.016,-0.002 -0.024,-0.004 -0.008,-0.001 -0.015,-0.003 -0.022,-0.005 -0.007,-10e-4 -0.013,-0.003 -0.02,-0.005 -0.008,-0.002 -0.015,-0.005 -0.022,-0.007 -0.004,-0.002 -0.008,-0.003 -0.011,-0.004 -0.178,-0.066 -4.353,-1.645 -5.571,-2.163 C -20.369,9.392 -20.777,7.973 -20.82,7.808 -20.821,7.804 -20.822,7.802 -20.822,7.8 -20.823,7.797 -20.824,7.794 -20.824,7.793 L -21.938,3.2 -22.393,1.33 c -0.053,-0.221 0.064,-0.447 0.275,-0.531 l 4.482,-1.78 v -13.386 -1.854 c 0,-0.251 0.204,-0.455 0.455,-0.455 h 16.725 c 0.252,0 0.456,0.204 0.456,0.455 v 1.854 z m -0.912,-12.93 h -11.204 c -0.252,0 -0.456,-0.204 -0.456,-0.456 0,-0.252 0.204,-0.455 0.456,-0.455 h 11.204 v -0.943 h -15.813 v 0.943 h 3.089 c 0.252,0 0.456,0.204 0.456,0.455 0,0.252 -0.204,0.456 -0.456,0.456 h -3.089 v 13.239 1.955 3.532 c 0,0.083 -0.022,0.165 -0.065,0.237 l -2.299,3.802 c 0.148,0.119 0.32,0.227 0.519,0.312 0.933,0.396 3.732,1.464 4.954,1.928 0.293,-2.695 2.386,-4.862 4.83,-4.862 2.437,0 4.525,2.155 4.828,4.838 C -2.705,10.594 0.016,9.555 0.934,9.166 1.133,9.081 1.305,8.973 1.453,8.854 L -0.846,5.052 C -0.889,4.98 -0.912,4.899 -0.912,4.815 V 1.283 -0.672 Z"
             style="fill:#ffffff;fill-opacity:1;fill-rule:nonzero;stroke:none"
             id="path4090"
             inkscape:connector-curvature="0" />
        </g>
      </g>
    </g>
  </g>
</svg>
